{
  "accessors": [
    {
      "bufferView": 2,
      "componentType": 5126,
      "count": 65532,
      "max": [
        167.55397033691406,
        15.50111198425293,
        27.915122985839844
      ],
      "min": [
        151.6956329345703,
        -0.46912240982055664,
        0.73269122838974
      ],
      "type": "VEC3"
    },
    {
      "bufferView": 2,
      "byteOffset": 786384,
      "componentType": 5126,
      "count": 65532,
      "max": [
        1.0,
        1.0,
        1.0
      ],
      "min": [
        -1.0,
        -1.0,
        -1.0
      ],
      "type": "VEC3"
    },
    {
      "bufferView": 1,
      "componentType": 5126,
      "count": 65532,
      "max": [
        2.8659839630126953,
        2.87620210647583
      ],
      "min": [
        -4.947346210479736,
        -2.808195114135742
      ],
      "type": "VEC2"
    },
    {
      "bufferView": 0,
      "componentType": 5125,
      "count": 115440,
      "type": "SCALAR"
    },
    {
      "bufferView": 2,
      "byteOffset": 1572768,
      "componentType": 5126,
      "count": 65532,
      "max": [
        167.55397033691406,
        15.50111198425293,
        31.9599552154541
      ],
      "min": [
        151.6956329345703,
        -0.47814738750457764,
        0.73269122838974
      ],
      "type": "VEC3"
    },
    {
      "bufferView": 2,
      "byteOffset": 2359152,
      "componentType": 5126,
      "count": 65532,
      "max": [
        1.0,
        1.0,
        1.0
      ],
      "min": [
        -1.0,
        -1.0,
        -1.0
      ],
      "type": "VEC3"
    },
    {
      "bufferView": 1,
      "byteOffset": 524256,
      "componentType": 5126,
      "count": 65532,
      "max": [
        3.1393120288848877,
        3.1602399349212646
      ],
      "min": [
        -4.947346210479736,
        -2.990933895111084
      ],
      "type": "VEC2"
    },
    {
      "bufferView": 0,
      "byteOffset": 461760,
      "componentType": 5125,
      "count": 115671,
      "type": "SCALAR"
    },
    {
      "bufferView": 2,
      "byteOffset": 3145536,
      "componentType": 5126,
      "count": 65532,
      "max": [
        167.55397033691406,
        15.50111198425293,
        31.9599552154541
      ],
      "min": [
        151.6956329345703,
        -0.4387773871421814,
        0.73269122838974
      ],
      "type": "VEC3"
    },
    {
      "bufferView": 2,
      "byteOffset": 3931920,
      "componentType": 5126,
      "count": 65532,
      "max": [
        1.0,
        1.0,
        1.0
      ],
      "min": [
        -1.0,
        -1.0,
        -1.0
      ],
      "type": "VEC3"
    },
    {
      "bufferView": 1,
      "byteOffset": 1048512,
      "componentType": 5126,
      "count": 65532,
      "max": [
        3.1393120288848877,
        3.1602399349212646
      ],
      "min": [
        -4.947346210479736,
        -2.990933895111084
      ],
      "type": "VEC2"
    },
    {
      "bufferView": 0,
      "byteOffset": 924444,
      "componentType": 5125,
      "count": 119178,
      "type": "SCALAR"
    },
    {
      "bufferView": 2,
      "byteOffset": 4718304,
      "componentType": 5126,
      "count": 5112,
      "max": [
        167.55397033691406,
        12.559002876281738,
        29.30362319946289
      ],
      "min": [
        151.6956329345703,
        -0.4387773871421814,
        21.480178833007813
      ],
      "type": "VEC3"
    },
    {
      "bufferView": 2,
      "byteOffset": 4779648,
      "componentType": 5126,
      "count": 5112,
      "max": [
        1.0,
        1.0,
        1.0
      ],
      "min": [
        -1.0,
        -1.0,
        -1.0
      ],
      "type": "VEC3"
    },
    {
      "bufferView": 1,
      "byteOffset": 1572768,
      "componentType": 5126,
      "count": 5112,
      "max": [
        2.7984750270843506,
        0.23550820350646973
      ],
      "min": [
        -4.910808086395264,
        -2.4125239849090576
      ],
      "type": "VEC2"
    },
    {
      "bufferView": 0,
      "byteOffset": 1401156,
      "componentType": 5125,
      "count": 10371,
      "type": "SCALAR"
    },
    {
      "bufferView": 2,
      "byteOffset": 4840992,
      "componentType": 5126,
      "count": 4120,
      "max": [
        168.12974548339844,
        11.367692947387695,
        31.882923126220703
      ],
      "min": [
        151.9796905517578,
        -0.06568098068237305,
        7.066722869873047
      ],
      "type": "VEC3"
    },
    {
      "bufferView": 0,
      "byteOffset": 1442640,
      "componentType": 5125,
      "count": 9944,
      "type": "SCALAR"
    },
    {
      "bufferView": 2,
      "byteOffset": 4890432,
      "componentType": 5126,
      "count": 16316,
      "max": [
        168.14706420898438,
        11.367692947387695,
        32.432918548583984
      ],
      "min": [
        151.22186279296875,
        -0.06568098068237305,
        2.829340696334839
      ],
      "type": "VEC3"
    },
    {
      "bufferView": 2,
      "byteOffset": 5086224,
      "componentType": 5126,
      "count": 16316,
      "max": [
        1.0,
        1.0,
        1.0
      ],
      "min": [
        -1.0,
        -1.0,
        -1.0
      ],
      "type": "VEC3"
    },
    {
      "bufferView": 0,
      "byteOffset": 1482416,
      "componentType": 5125,
      "count": 39714,
      "type": "SCALAR"
    },
    {
      "bufferView": 2,
      "byteOffset": 5282016,
      "componentType": 5126,
      "count": 24172,
      "max": [
        167.55397033691406,
        15.304262161254883,
        31.876317977905273
      ],
      "min": [
        151.6956329345703,
        -0.47814738750457764,
        0.6145809888839722
      ],
      "type": "VEC3"
    },
    {
      "bufferView": 0,
      "byteOffset": 1641272,
      "componentType": 5125,
      "count": 59400,
      "type": "SCALAR"
    },
    {
      "bufferView": 2,
      "byteOffset": 5572080,
      "componentType": 5126,
      "count": 24388,
      "max": [
        166.87774658203125,
        12.559002876281738,
        32.1125373840332
      ],
      "min": [
        152.33367919921875,
        0.08862820267677307,
        4.859400272369385
      ],
      "type": "VEC3"
    },
    {
      "bufferView": 2,
      "byteOffset": 5864736,
      "componentType": 5126,
      "count": 24388,
      "max": [
        1.0,
        1.0,
        1.0
      ],
      "min": [
        -1.0,
        -1.0,
        -1.0
      ],
      "type": "VEC3"
    },
    {
      "bufferView": 0,
      "byteOffset": 1878872,
      "componentType": 5125,
      "count": 57216,
      "type": "SCALAR"
    },
    {
      "bufferView": 2,
      "byteOffset": 6157392,
      "componentType": 5126,
      "count": 17402,
      "max": [
        168.26438903808594,
        20.18696403503418,
        32.78969955444336
      ],
      "min": [
        151.19839477539063,
        -0.10542070865631104,
        0.3783605992794037
      ],
      "type": "VEC3"
    },
    {
      "bufferView": 2,
      "byteOffset": 6366216,
      "componentType": 5126,
      "count": 17402,
      "max": [
        1.0,
        1.0,
        1.0
      ],
      "min": [
        -1.0,
        -1.0,
        -1.0
      ],
      "type": "VEC3"
    },
    {
      "bufferView": 0,
      "byteOffset": 2107736,
      "componentType": 5125,
      "count": 46626,
      "type": "SCALAR"
    },
    {
      "bufferView": 2,
      "byteOffset": 6575040,
      "componentType": 5126,
      "count": 144,
      "max": [
        162.30233764648438,
        12.163152694702148,
        31.922624588012695
      ],
      "min": [
        157.54550170898438,
        8.186777114868164,
        7.066722869873047
      ],
      "type": "VEC3"
    },
    {
      "bufferView": 0,
      "byteOffset": 2294240,
      "componentType": 5125,
      "count": 432,
      "type": "SCALAR"
    },
    {
      "bufferView": 2,
      "byteOffset": 6576768,
      "componentType": 5126,
      "count": 432,
      "max": [
        162.30233764648438,
        12.163152694702148,
        31.922624588012695
      ],
      "min": [
        157.54550170898438,
        8.186777114868164,
        7.066722869873047
      ],
      "type": "VEC3"
    },
    {
      "bufferView": 2,
      "byteOffset": 6581952,
      "componentType": 5126,
      "count": 432,
      "max": [
        1.0,
        1.0,
        1.0
      ],
      "min": [
        -1.0,
        -1.0,
        -1.0
      ],
      "type": "VEC3"
    },
    {
      "bufferView": 1,
      "byteOffset": 1613664,
      "componentType": 5126,
      "count": 432,
      "max": [
        3.035891056060791,
        0.19649480283260345
      ],
      "min": [
        -3.035891056060791,
        -0.4130558967590332
      ],
      "type": "VEC2"
    },
    {
      "bufferView": 0,
      "byteOffset": 2295968,
      "componentType": 5125,
      "count": 648,
      "type": "SCALAR"
    },
    {
      "bufferView": 2,
      "byteOffset": 6587136,
      "componentType": 5126,
      "count": 4584,
      "max": [
        167.59320068359375,
        15.114274978637695,
        32.37225341796875
      ],
      "min": [
        151.65640258789063,
        0.23051400482654572,
        6.75777006149292
      ],
      "type": "VEC3"
    },
    {
      "bufferView": 0,
      "byteOffset": 2298560,
      "componentType": 5125,
      "count": 11072,
      "type": "SCALAR"
    },
    {
      "bufferView": 2,
      "byteOffset": 6642144,
      "componentType": 5126,
      "count": 57520,
      "max": [
        167.59320068359375,
        15.114274978637695,
        32.37225341796875
      ],
      "min": [
        151.65640258789063,
        0.23051400482654572,
        6.75777006149292
      ],
      "type": "VEC3"
    },
    {
      "bufferView": 2,
      "byteOffset": 7332384,
      "componentType": 5126,
      "count": 57520,
      "max": [
        1.0,
        1.0,
        1.0
      ],
      "min": [
        -1.0,
        -1.0,
        -1.0
      ],
      "type": "VEC3"
    },
    {
      "bufferView": 1,
      "byteOffset": 1617120,
      "componentType": 5126,
      "count": 57520,
      "max": [
        3.16713809967041,
        2.9386019706726074
      ],
      "min": [
        -3.16713809967041,
        -3.217215061187744
      ],
      "type": "VEC2"
    },
    {
      "bufferView": 0,
      "byteOffset": 2342848,
      "componentType": 5125,
      "count": 157716,
      "type": "SCALAR"
    },
    {
      "bufferView": 2,
      "byteOffset": 8022624,
      "componentType": 5126,
      "count": 288,
      "max": [
        167.12380981445313,
        15.503949165344238,
        31.253332138061523
      ],
      "min": [
        152.12579345703125,
        1.8112086057662964,
        6.8986921310424805
      ],
      "type": "VEC3"
    },
    {
      "bufferView": 0,
      "byteOffset": 2973712,
      "componentType": 5125,
      "count": 720,
      "type": "SCALAR"
    },
    {
      "bufferView": 2,
      "byteOffset": 8026080,
      "componentType": 5126,
      "count": 576,
      "max": [
        167.12380981445313,
        15.503949165344238,
        31.253332138061523
      ],
      "min": [
        152.12579345703125,
        1.8112086057662964,
        6.8986921310424805
      ],
      "type": "VEC3"
    },
    {
      "bufferView": 2,
      "byteOffset": 8032992,
      "componentType": 5126,
      "count": 576,
      "max": [
        1.0,
        1.0,
        1.0
      ],
      "min": [
        -1.0,
        -1.0,
        -1.0
      ],
      "type": "VEC3"
    },
    {
      "bufferView": 0,
      "byteOffset": 2976592,
      "componentType": 5125,
      "count": 1296,
      "type": "SCALAR"
    },
    {
      "bufferView": 2,
      "byteOffset": 8039904,
      "componentType": 5126,
      "count": 144,
      "max": [
        166.99261474609375,
        15.375819206237793,
        31.253332138061523
      ],
      "min": [
        152.25698852539063,
        1.9393424987792969,
        6.8986921310424805
      ],
      "type": "VEC3"
    },
    {
      "bufferView": 2,
      "byteOffset": 8041632,
      "componentType": 5126,
      "count": 144,
      "max": [
        7.474437253432355e-32,
        3.3245849950340196e-16,
        1.0
      ],
      "min": [
        0.0,
        -2.659668101906334e-16,
        -1.0
      ],
      "type": "VEC3"
    },
    {
      "bufferView": 0,
      "byteOffset": 2981776,
      "componentType": 5125,
      "count": 216,
      "type": "SCALAR"
    },
    {
      "bufferView": 2,
      "byteOffset": 8043360,
      "componentType": 5126,
      "count": 12456,
      "max": [
        166.66090393066406,
        15.114274978637695,
        32.37225341796875
      ],
      "min": [
        152.51133728027344,
        13.815062522888184,
        7.066722869873047
      ],
      "type": "VEC3"
    },
    {
      "bufferView": 2,
      "byteOffset": 8192832,
      "componentType": 5126,
      "count": 12456,
      "max": [
        1.0,
        1.0,
        1.0
      ],
      "min": [
        -1.0,
        -1.0,
        -1.0
      ],
      "type": "VEC3"
    },
    {
      "bufferView": 1,
      "byteOffset": 2077280,
      "componentType": 5126,
      "count": 12456,
      "max": [
        0.35100001096725464,
        0.03099999949336052
      ],
      "min": [
        -0.35100001096725464,
        -4.7254311330872587e-14
      ],
      "type": "VEC2"
    },
    {
      "bufferView": 0,
      "byteOffset": 2982640,
      "componentType": 5125,
      "count": 24408,
      "type": "SCALAR"
    },
    {
      "bufferView": 2,
      "byteOffset": 8342304,
      "componentType": 5126,
      "count": 646,
      "max": [
        168.4259490966797,
        18.02079200744629,
        32.51968765258789
      ],
      "min": [
        151.19839477539063,
        0.1797398030757904,
        6.2448811531066895
      ],
      "type": "VEC3"
    },
    {
      "bufferView": 0,
      "byteOffset": 3080272,
      "componentType": 5125,
      "count": 766,
      "type": "SCALAR"
    },
    {
      "bufferView": 2,
      "byteOffset": 8350056,
      "componentType": 5126,
      "count": 160,
      "max": [
        168.4259490966797,
        0.5734406113624573,
        32.514102935791016
      ],
      "min": [
        151.19839477539063,
        0.1797398030757904,
        6.279963970184326
      ],
      "type": "VEC3"
    },
    {
      "bufferView": 2,
      "byteOffset": 8351976,
      "componentType": 5126,
      "count": 160,
      "max": [
        1.0,
        1.0,
        1.0
      ],
      "min": [
        -1.0,
        -1.0,
        -1.0
      ],
      "type": "VEC3"
    },
    {
      "bufferView": 1,
      "byteOffset": 2176928,
      "componentType": 5126,
      "count": 160,
      "max": [
        0.4783549904823303,
        0.7211551070213318
      ],
      "min": [
        -0.4783549904823303,
        -1.0163579674323398e-14
      ],
      "type": "VEC2"
    },
    {
      "bufferView": 0,
      "byteOffset": 3083336,
      "componentType": 5125,
      "count": 306,
      "type": "SCALAR"
    },
    {
      "bufferView": 2,
      "byteOffset": 8353896,
      "componentType": 5126,
      "count": 464,
      "max": [
        167.87828063964844,
        15.304262161254883,
        21.193571090698242
      ],
      "min": [
        151.8426055908203,
        0.1467771977186203,
        0.73269122838974
      ],
      "type": "VEC3"
    },
    {
      "bufferView": 2,
      "byteOffset": 8359464,
      "componentType": 5126,
      "count": 464,
      "max": [
        1.0,
        1.0,
        1.0
      ],
      "min": [
        -1.0,
        -1.0,
        -1.0
      ],
      "type": "VEC3"
    },
    {
      "bufferView": 1,
      "byteOffset": 2178208,
      "componentType": 5126,
      "count": 464,
      "max": [
        3.440593957901001,
        0.4276314079761505
      ],
      "min": [
        -3.440593957901001,
        0.0032467530108988285
      ],
      "type": "VEC2"
    },
    {
      "bufferView": 0,
      "byteOffset": 3084560,
      "componentType": 5125,
      "count": 888,
      "type": "SCALAR"
    },
    {
      "bufferView": 2,
      "byteOffset": 8365032,
      "componentType": 5126,
      "count": 14280,
      "max": [
        166.82476806640625,
        0.8604351878166199,
        31.828166961669922
      ],
      "min": [
        152.3920135498047,
        0.18090400099754333,
        3.5166451930999756
      ],
      "type": "VEC3"
    },
    {
      "bufferView": 0,
      "byteOffset": 3088112,
      "componentType": 5125,
      "count": 39984,
      "type": "SCALAR"
    },
    {
      "bufferView": 2,
      "byteOffset": 8536392,
      "componentType": 5126,
      "count": 39992,
      "max": [
        166.82476806640625,
        0.8604351878166199,
        31.876317977905273
      ],
      "min": [
        152.3920135498047,
        0.18090400099754333,
        3.5166451930999756
      ],
      "type": "VEC3"
    },
    {
      "bufferView": 2,
      "byteOffset": 9016296,
      "componentType": 5126,
      "count": 39992,
      "max": [
        1.0,
        1.0,
        1.0
      ],
      "min": [
        -1.0,
        -1.0,
        -1.0
      ],
      "type": "VEC3"
    },
    {
      "bufferView": 0,
      "byteOffset": 3248048,
      "componentType": 5125,
      "count": 68556,
      "type": "SCALAR"
    },
    {
      "bufferView": 2,
      "byteOffset": 9496200,
      "componentType": 5126,
      "count": 9628,
      "max": [
        162.7868194580078,
        0.9547698497772217,
        20.355775833129883
      ],
      "min": [
        155.7021942138672,
        -0.20319730043411255,
        1.4300479888916016
      ],
      "type": "VEC3"
    },
    {
      "bufferView": 2,
      "byteOffset": 9611736,
      "componentType": 5126,
      "count": 9628,
      "max": [
        1.0,
        1.0,
        1.0
      ],
      "min": [
        -1.0,
        -1.0,
        -1.0
      ],
      "type": "VEC3"
    },
    {
      "bufferView": 1,
      "byteOffset": 2181920,
      "componentType": 5126,
      "count": 9628,
      "max": [
        0.7694135904312134,
        0.9362502098083496
      ],
      "min": [
        -1.1693129539489746,
        -0.9311261773109436
      ],
      "type": "VEC2"
    },
    {
      "bufferView": 0,
      "byteOffset": 3522272,
      "componentType": 5125,
      "count": 18900,
      "type": "SCALAR"
    },
    {
      "bufferView": 2,
      "byteOffset": 9727272,
      "componentType": 5126,
      "count": 2360,
      "max": [
        162.7868194580078,
        0.9547698497772217,
        20.355775833129883
      ],
      "min": [
        155.7021942138672,
        -0.20319730043411255,
        1.4300479888916016
      ],
      "type": "VEC3"
    },
    {
      "bufferView": 0,
      "byteOffset": 3597872,
      "componentType": 5125,
      "count": 4728,
      "type": "SCALAR"
    },
    {
      "bufferView": 2,
      "byteOffset": 9755592,
      "componentType": 5126,
      "count": 8,
      "max": [
        159.89862060546875,
        14.69492244720459,
        5.173563003540039
      ],
      "min": [
        158.71595764160156,
        0.12799830734729767,
        1.6302556991577148
      ],
      "type": "VEC3"
    },
    {
      "bufferView": 0,
      "byteOffset": 3616784,
      "componentType": 5125,
      "count": 8,
      "type": "SCALAR"
    },
    {
      "bufferView": 2,
      "byteOffset": 9755688,
      "componentType": 5126,
      "count": 2152,
      "max": [
        166.92129516601563,
        14.69492244720459,
        25.138113021850586
      ],
      "min": [
        152.28799438476563,
        0.12799830734729767,
        1.6302556991577148
      ],
      "type": "VEC3"
    },
    {
      "bufferView": 2,
      "byteOffset": 9781512,
      "componentType": 5126,
      "count": 2152,
      "max": [
        1.0,
        0.0,
        0.0
      ],
      "min": [
        -1.0,
        -1.0,
        -1.0
      ],
      "type": "VEC3"
    },
    {
      "bufferView": 1,
      "byteOffset": 2258944,
      "componentType": 5126,
      "count": 2152,
      "max": [
        9.181346893310547,
        0.7726646065711975
      ],
      "min": [
        -3.4057390689849854,
        -1.1955490112304688
      ],
      "type": "VEC2"
    },
    {
      "bufferView": 0,
      "byteOffset": 3616816,
      "componentType": 5125,
      "count": 6444,
      "type": "SCALAR"
    },
    {
      "bufferView": 2,
      "byteOffset": 9807336,
      "componentType": 5126,
      "count": 104,
      "max": [
        159.89862060546875,
        14.57717227935791,
        5.07935905456543
      ],
      "min": [
        158.71595764160156,
        0.24575400352478027,
        1.724460244178772
      ],
      "type": "VEC3"
    },
    {
      "bufferView": 2,
      "byteOffset": 9808584,
      "componentType": 5126,
      "count": 104,
      "max": [
        1.0,
        0.0,
        0.0
      ],
      "min": [
        -1.0,
        0.0,
        0.0
      ],
      "type": "VEC3"
    },
    {
      "bufferView": 0,
      "byteOffset": 3642592,
      "componentType": 5125,
      "count": 384,
      "type": "SCALAR"
    },
    {
      "bufferView": 2,
      "byteOffset": 9809832,
      "componentType": 5126,
      "count": 80,
      "max": [
        159.89862060546875,
        7.335912227630615,
        4.988383769989014
      ],
      "min": [
        158.71595764160156,
        0.4015015661716461,
        1.808433175086975
      ],
      "type": "VEC3"
    },
    {
      "bufferView": 2,
      "byteOffset": 9810792,
      "componentType": 5126,
      "count": 80,
      "max": [
        1.0,
        0.0,
        0.0
      ],
      "min": [
        -1.0,
        0.0,
        0.0
      ],
      "type": "VEC3"
    },
    {
      "bufferView": 0,
      "byteOffset": 3644128,
      "componentType": 5125,
      "count": 144,
      "type": "SCALAR"
    },
    {
      "bufferView": 2,
      "byteOffset": 9811752,
      "componentType": 5126,
      "count": 65532,
      "max": [
        167.21995544433594,
        21.850393295288086,
        31.957921981811523
      ],
      "min": [
        152.12350463867188,
        -0.2914680242538452,
        0.6145809888839722
      ],
      "type": "VEC3"
    },
    {
      "bufferView": 2,
      "byteOffset": 10598136,
      "componentType": 5126,
      "count": 65532,
      "max": [
        1.0,
        1.0,
        1.0
      ],
      "min": [
        -1.0,
        -1.0,
        -1.0
      ],
      "type": "VEC3"
    },
    {
      "bufferView": 1,
      "byteOffset": 2276160,
      "componentType": 5126,
      "count": 65532,
      "max": [
        3.152371883392334,
        3.2351109981536865
      ],
      "min": [
        -3.152371883392334,
        -2.982840061187744
      ],
      "type": "VEC2"
    },
    {
      "bufferView": 0,
      "byteOffset": 3644704,
      "componentType": 5125,
      "count": 129771,
      "type": "SCALAR"
    },
    {
      "bufferView": 2,
      "byteOffset": 11384520,
      "componentType": 5126,
      "count": 4372,
      "max": [
        166.7386016845703,
        21.850393295288086,
        23.591556549072266
      ],
      "min": [
        155.2021484375,
        -0.2914680242538452,
        0.6145809888839722
      ],
      "type": "VEC3"
    },
    {
      "bufferView": 2,
      "byteOffset": 11436984,
      "componentType": 5126,
      "count": 4372,
      "max": [
        1.0,
        1.0,
        1.0
      ],
      "min": [
        -1.0,
        -1.0,
        -1.0
      ],
      "type": "VEC3"
    },
    {
      "bufferView": 1,
      "byteOffset": 2800416,
      "componentType": 5126,
      "count": 4372,
      "max": [
        3.152371883392334,
        3.2351109981536865
      ],
      "min": [
        -3.152371883392334,
        -2.982840061187744
      ],
      "type": "VEC2"
    },
    {
      "bufferView": 0,
      "byteOffset": 4163788,
      "componentType": 5125,
      "count": 9201,
      "type": "SCALAR"
    },
    {
      "bufferView": 2,
      "byteOffset": 11489448,
      "componentType": 5126,
      "count": 280,
      "max": [
        160.5333709716797,
        0.08862820267677307,
        5.767091751098633
      ],
      "min": [
        158.68641662597656,
        0.08862820267677307,
        2.667253017425537
      ],
      "type": "VEC3"
    },
    {
      "bufferView": 2,
      "byteOffset": 11492808,
      "componentType": 5126,
      "count": 280,
      "max": [
        0.0,
        -1.0,
        0.0
      ],
      "min": [
        0.0,
        -1.0,
        0.0
      ],
      "type": "VEC3"
    },
    {
      "bufferView": 0,
      "byteOffset": 4200592,
      "componentType": 5125,
      "count": 1200,
      "type": "SCALAR"
    },
    {
      "bufferView": 2,
      "byteOffset": 11496168,
      "componentType": 5126,
      "count": 192,
      "max": [
        160.22129821777344,
        0.10953927785158157,
        5.300853729248047
      ],
      "min": [
        159.0895538330078,
        0.10173363238573074,
        4.951843738555908
      ],
      "type": "VEC3"
    },
    {
      "bufferView": 0,
      "byteOffset": 4205392,
      "componentType": 5125,
      "count": 384,
      "type": "SCALAR"
    },
    {
      "bufferView": 2,
      "byteOffset": 11498472,
      "componentType": 5126,
      "count": 1152,
      "max": [
        160.22129821777344,
        0.10953927785158157,
        5.300853729248047
      ],
      "min": [
        159.0895538330078,
        0.07016920298337936,
        4.951843738555908
      ],
      "type": "VEC3"
    },
    {
      "bufferView": 2,
      "byteOffset": 11512296,
      "componentType": 5126,
      "count": 1152,
      "max": [
        1.0,
        -0.00039390812162309885,
        1.0
      ],
      "min": [
        -1.0,
        -0.9986729621887207,
        -1.0
      ],
      "type": "VEC3"
    },
    {
      "bufferView": 0,
      "byteOffset": 4206928,
      "componentType": 5125,
      "count": 5388,
      "type": "SCALAR"
    },
    {
      "bufferView": 2,
      "byteOffset": 11526120,
      "componentType": 5126,
      "count": 4496,
      "max": [
        167.13356018066406,
        0.0234925989061594,
        5.116631984710693
      ],
      "min": [
        152.2176055908203,
        -0.05524750053882599,
        4.563057899475098
      ],
      "type": "VEC3"
    },
    {
      "bufferView": 2,
      "byteOffset": 11580072,
      "componentType": 5126,
      "count": 4496,
      "max": [
        5.514715999799897e-15,
        -1.0,
        1.1322740027476172e-14
      ],
      "min": [
        -1.8624311416541063e-14,
        -1.0,
        -1.330246016014976e-14
      ],
      "type": "VEC3"
    },
    {
      "bufferView": 0,
      "byteOffset": 4228480,
      "componentType": 5125,
      "count": 12768,
      "type": "SCALAR"
    },
    {
      "bufferView": 2,
      "byteOffset": 11634024,
      "componentType": 5126,
      "count": 560,
      "max": [
        166.98927307128906,
        -0.015877505764365196,
        2.743849992752075
      ],
      "min": [
        152.3566131591797,
        -0.3308381140232086,
        2.540550947189331
      ],
      "type": "VEC3"
    },
    {
      "bufferView": 2,
      "byteOffset": 11640744,
      "componentType": 5126,
      "count": 560,
      "max": [
        1.0,
        0.0,
        1.0
      ],
      "min": [
        -1.0,
        -1.0,
        -1.0
      ],
      "type": "VEC3"
    },
    {
      "bufferView": 0,
      "byteOffset": 4279552,
      "componentType": 5125,
      "count": 1008,
      "type": "SCALAR"
    },
    {
      "bufferView": 2,
      "byteOffset": 11647464,
      "componentType": 5126,
      "count": 1032,
      "max": [
        166.6788787841797,
        -0.17335784435272217,
        3.1337900161743164
      ],
      "min": [
        152.56117248535156,
        -0.2520979344844818,
        2.892416000366211
      ],
      "type": "VEC3"
    },
    {
      "bufferView": 2,
      "byteOffset": 11659848,
      "componentType": 5126,
      "count": 1032,
      "max": [
        0.0,
        -1.0,
        5.118186842905216e-15
      ],
      "min": [
        -3.617629436845123e-15,
        -1.0,
        0.0
      ],
      "type": "VEC3"
    },
    {
      "bufferView": 0,
      "byteOffset": 4283584,
      "componentType": 5125,
      "count": 2952,
      "type": "SCALAR"
    },
    {
      "bufferView": 2,
      "byteOffset": 11672232,
      "componentType": 5126,
      "count": 768,
      "max": [
        166.70346069335938,
        0.47745010256767273,
        24.779232025146484
      ],
      "min": [
        152.50582885742188,
        0.26988399028778076,
        8.728822708129883
      ],
      "type": "VEC3"
    },
    {
      "bufferView": 2,
      "byteOffset": 11681448,
      "componentType": 5126,
      "count": 768,
      "max": [
        0.0,
        0.0,
        1.0
      ],
      "min": [
        0.0,
        0.0,
        -1.0
      ],
      "type": "VEC3"
    },
    {
      "bufferView": 1,
      "byteOffset": 2835392,
      "componentType": 5126,
      "count": 768,
      "max": [
        2.792941093444824,
        0.011127229779958725
      ],
      "min": [
        -2.792941093444824,
        0.006855055224150419
      ],
      "type": "VEC2"
    },
    {
      "bufferView": 0,
      "byteOffset": 4295392,
      "componentType": 5125,
      "count": 1152,
      "type": "SCALAR"
    },
    {
      "bufferView": 2,
      "byteOffset": 11690664,
      "componentType": 5126,
      "count": 8,
      "max": [
        164.28231811523438,
        0.26988399028778076,
        31.876317977905273
      ],
      "min": [
        164.15213012695313,
        0.26988399028778076,
        30.439666748046875
      ],
      "type": "VEC3"
    },
    {
      "bufferView": 2,
      "byteOffset": 11690760,
      "componentType": 5126,
      "count": 8,
      "max": [
        0.0,
        -1.0,
        0.0
      ],
      "min": [
        0.0,
        -1.0,
        0.0
      ],
      "type": "VEC3"
    },
    {
      "bufferView": 0,
      "byteOffset": 4300000,
      "componentType": 5125,
      "count": 12,
      "type": "SCALAR"
    },
    {
      "bufferView": 2,
      "byteOffset": 11690856,
      "componentType": 5126,
      "count": 2034,
      "max": [
        169.17758178710938,
        22.79527473449707,
        33.228355407714844
      ],
      "min": [
        150.20120239257813,
        -0.10870639979839325,
        0.0
      ],
      "type": "VEC3"
    },
    {
      "bufferView": 0,
      "byteOffset": 4300048,
      "componentType": 5125,
      "count": 4594,
      "type": "SCALAR"
    },
    {
      "bufferView": 2,
      "byteOffset": 11715264,
      "componentType": 5126,
      "count": 1774,
      "max": [
        169.17758178710938,
        20.551183700561523,
        33.228355407714844
      ],
      "min": [
        150.20120239257813,
        -0.10870639979839325,
        0.0
      ],
      "type": "VEC3"
    },
    {
      "bufferView": 2,
      "byteOffset": 11736552,
      "componentType": 5126,
      "count": 1774,
      "max": [
        1.0,
        1.0,
        1.0
      ],
      "min": [
        -1.0,
        -1.0,
        -1.0
      ],
      "type": "VEC3"
    },
    {
      "bufferView": 1,
      "byteOffset": 2841536,
      "componentType": 5126,
      "count": 1774,
      "max": [
        0.21570250391960144,
        0.7016667127609253
      ],
      "min": [
        -0.21570250391960144,
        -0.43229231238365173
      ],
      "type": "VEC2"
    },
    {
      "bufferView": 0,
      "byteOffset": 4318424,
      "componentType": 5125,
      "count": 3252,
      "type": "SCALAR"
    },
    {
      "bufferView": 2,
      "byteOffset": 11757840,
      "componentType": 5126,
      "count": 8,
      "max": [
        168.39016723632813,
        0.02472567930817604,
        32.59843063354492
      ],
      "min": [
        150.9886016845703,
        -0.10870639979839325,
        3.747978925704956
      ],
      "type": "VEC3"
    },
    {
      "bufferView": 2,
      "byteOffset": 11757936,
      "componentType": 5126,
      "count": 8,
      "max": [
        0.0,
        -1.0,
        5.71043185610895e-14
      ],
      "min": [
        -6.512734156057245e-34,
        -1.0,
        6.160661207793659e-17
      ],
      "type": "VEC3"
    },
    {
      "bufferView": 0,
      "byteOffset": 4331432,
      "componentType": 5125,
      "count": 12,
      "type": "SCALAR"
    },
    {
      "bufferView": 2,
      "byteOffset": 11758032,
      "componentType": 5126,
      "count": 2880,
      "max": [
        167.80357360839844,
        20.704072952270508,
        30.320585250854492
      ],
      "min": [
        155.99253845214844,
        20.585962295532227,
        8.312716484069824
      ],
      "type": "VEC3"
    },
    {
      "bufferView": 2,
      "byteOffset": 11792592,
      "componentType": 5126,
      "count": 2880,
      "max": [
        1.0,
        1.0,
        1.0
      ],
      "min": [
        -1.0,
        -1.0,
        -1.0
      ],
      "type": "VEC3"
    },
    {
      "bufferView": 1,
      "byteOffset": 2855728,
      "componentType": 5126,
      "count": 2880,
      "max": [
        2.885211944580078,
        2.9478189945220947
      ],
      "min": [
        -2.885211944580078,
        -2.766350030899048
      ],
      "type": "VEC2"
    },
    {
      "bufferView": 0,
      "byteOffset": 4331480,
      "componentType": 5125,
      "count": 5520,
      "type": "SCALAR"
    },
    {
      "bufferView": 2,
      "byteOffset": 11827152,
      "componentType": 5126,
      "count": 2080,
      "max": [
        166.9043731689453,
        22.79527473449707,
        30.959924697875977
      ],
      "min": [
        158.00672912597656,
        20.551179885864258,
        7.810321807861328
      ],
      "type": "VEC3"
    },
    {
      "bufferView": 2,
      "byteOffset": 11852112,
      "componentType": 5126,
      "count": 2080,
      "max": [
        0.0,
        1.0,
        4.090443864590247e-31
      ],
      "min": [
        0.0,
        -1.0,
        -4.090443864590247e-31
      ],
      "type": "VEC3"
    },
    {
      "bufferView": 1,
      "byteOffset": 2878768,
      "componentType": 5126,
      "count": 2080,
      "max": [
        -13.370160102844238,
        60.49094009399414
      ],
      "min": [
        -242.6439971923828,
        0.4675261080265045
      ],
      "type": "VEC2"
    },
    {
      "bufferView": 0,
      "byteOffset": 4353560,
      "componentType": 5125,
      "count": 6000,
      "type": "SCALAR"
    },
    {
      "bufferView": 2,
      "byteOffset": 11877072,
      "componentType": 5126,
      "count": 5462,
      "max": [
        168.18032836914063,
        22.79527473449707,
        31.185205459594727
      ],
      "min": [
        151.19839477539063,
        0.02472567930817604,
        0.4964708089828491
      ],
      "type": "VEC3"
    },
    {
      "bufferView": 2,
      "byteOffset": 11942616,
      "componentType": 5126,
      "count": 5462,
      "max": [
        1.0,
        1.0,
        1.0
      ],
      "min": [
        -1.0,
        -1.0,
        -1.0
      ],
      "type": "VEC3"
    },
    {
      "bufferView": 1,
      "byteOffset": 2895408,
      "componentType": 5126,
      "count": 5462,
      "max": [
        1.315106987953186,
        2.706449031829834
      ],
      "min": [
        -1.315106987953186,
        -2.5984389781951904
      ],
      "type": "VEC2"
    },
    {
      "bufferView": 0,
      "byteOffset": 4377560,
      "componentType": 5125,
      "count": 11292,
      "type": "SCALAR"
    },
    {
      "bufferView": 2,
      "byteOffset": 12008160,
      "componentType": 5126,
      "count": 240,
      "max": [
        165.74087524414063,
        21.850393295288086,
        29.79643440246582
      ],
      "min": [
        159.1702117919922,
        21.850393295288086,
        8.973811149597168
      ],
      "type": "VEC3"
    },
    {
      "bufferView": 2,
      "byteOffset": 12011040,
      "componentType": 5126,
      "count": 240,
      "max": [
        0.0,
        1.0,
        0.0
      ],
      "min": [
        0.0,
        1.0,
        0.0
      ],
      "type": "VEC3"
    },
    {
      "bufferView": 0,
      "byteOffset": 4422728,
      "componentType": 5125,
      "count": 660,
      "type": "SCALAR"
    },
    {
      "bufferView": 2,
      "byteOffset": 12013920,
      "componentType": 5126,
      "count": 13200,
      "max": [
        156.47869873046875,
        22.306180953979492,
        30.40789031982422
      ],
      "min": [
        155.6322021484375,
        22.109331130981445,
        8.911827087402344
      ],
      "type": "VEC3"
    },
    {
      "bufferView": 2,
      "byteOffset": 12172320,
      "componentType": 5126,
      "count": 13200,
      "max": [
        1.0,
        1.0,
        1.0
      ],
      "min": [
        -1.0,
        -1.0,
        -1.0
      ],
      "type": "VEC3"
    },
    {
      "bufferView": 1,
      "byteOffset": 2939104,
      "componentType": 5126,
      "count": 13200,
      "max": [
        2.9971940517425537,
        2.895117998123169
      ],
      "min": [
        -2.9973959922790527,
        -2.2258639335632324
      ],
      "type": "VEC2"
    },
    {
      "bufferView": 0,
      "byteOffset": 4425368,
      "componentType": 5125,
      "count": 20040,
      "type": "SCALAR"
    },
    {
      "bufferView": 2,
      "byteOffset": 12330720,
      "componentType": 5126,
      "count": 96,
      "max": [
        167.84051513671875,
        18.02079200744629,
        32.51968765258789
      ],
      "min": [
        151.8426055908203,
        0.5734406113624573,
        6.2448811531066895
      ],
      "type": "VEC3"
    },
    {
      "bufferView": 2,
      "byteOffset": 12331872,
      "componentType": 5126,
      "count": 96,
      "max": [
        1.0,
        1.0,
        1.0
      ],
      "min": [
        -1.0,
        -1.0,
        -1.0
      ],
      "type": "VEC3"
    },
    {
      "bufferView": 1,
      "byteOffset": 3044704,
      "componentType": 5126,
      "count": 96,
      "max": [
        0.2907891869544983,
        0.4333023130893707
      ],
      "min": [
        -0.2907891869544983,
        0.0
      ],
      "type": "VEC2"
    },
    {
      "bufferView": 0,
      "byteOffset": 4505528,
      "componentType": 5125,
      "count": 144,
      "type": "SCALAR"
    },
    {
      "bufferView": 2,
      "byteOffset": 12333024,
      "componentType": 5126,
      "count": 65532,
      "max": [
        167.6042938232422,
        18.06015968322754,
        32.78969955444336
      ],
      "min": [
        151.8032989501953,
        0.6128106713294983,
        6.521549224853516
      ],
      "type": "VEC3"
    },
    {
      "bufferView": 2,
      "byteOffset": 13119408,
      "componentType": 5126,
      "count": 65532,
      "max": [
        1.0,
        1.0,
        0.999761700630188
      ],
      "min": [
        -1.0,
        -1.0,
        -0.999761700630188
      ],
      "type": "VEC3"
    },
    {
      "bufferView": 1,
      "byteOffset": 3045472,
      "componentType": 5126,
      "count": 65532,
      "max": [
        1.8200809955596924,
        0.6594985723495483
      ],
      "min": [
        -1.8200809955596924,
        -0.40842169523239136
      ],
      "type": "VEC2"
    },
    {
      "bufferView": 0,
      "byteOffset": 4506104,
      "componentType": 5125,
      "count": 129477,
      "type": "SCALAR"
    },
    {
      "bufferView": 2,
      "byteOffset": 13905792,
      "componentType": 5126,
      "count": 45080,
      "max": [
        167.6042938232422,
        18.06015968322754,
        32.78969955444336
      ],
      "min": [
        151.8032989501953,
        0.6128106713294983,
        6.521549224853516
      ],
      "type": "VEC3"
    },
    {
      "bufferView": 2,
      "byteOffset": 14446752,
      "componentType": 5126,
      "count": 45080,
      "max": [
        1.0,
        1.0,
        0.999761700630188
      ],
      "min": [
        -1.0,
        -1.0,
        -0.999761700630188
      ],
      "type": "VEC3"
    },
    {
      "bufferView": 1,
      "byteOffset": 3569728,
      "componentType": 5126,
      "count": 45080,
      "max": [
        1.8200809955596924,
        0.6594985723495483
      ],
      "min": [
        -1.8200809955596924,
        -0.40842169523239136
      ],
      "type": "VEC2"
    },
    {
      "bufferView": 0,
      "byteOffset": 5024012,
      "componentType": 5125,
      "count": 91293,
      "type": "SCALAR"
    },
    {
      "bufferView": 2,
      "byteOffset": 14987712,
      "componentType": 5126,
      "count": 16,
      "max": [
        168.14706420898438,
        0.15249450504779816,
        20.950960159301758
      ],
      "min": [
        167.69264221191406,
        -0.06534543633460999,
        15.419801712036133
      ],
      "type": "VEC3"
    },
    {
      "bufferView": 2,
      "byteOffset": 14987904,
      "componentType": 5126,
      "count": 16,
      "max": [
        -0.4283851683139801,
        -0.9035962224006653,
        -4.5410448771372806e-17
      ],
      "min": [
        -0.4283851683139801,
        -0.9035962224006653,
        -1.3636255039415913e-16
      ],
      "type": "VEC3"
    },
    {
      "bufferView": 0,
      "byteOffset": 5389184,
      "componentType": 5125,
      "count": 24,
      "type": "SCALAR"
    },
    {
      "bufferView": 2,
      "byteOffset": 14988096,
      "componentType": 5126,
      "count": 8,
      "max": [
        168.14706420898438,
        0.15249450504779816,
        32.39324951171875
      ],
      "min": [
        167.69264221191406,
        -0.06534543633460999,
        29.64750862121582
      ],
      "type": "VEC3"
    },
    {
      "bufferView": 2,
      "byteOffset": 14988192,
      "componentType": 5126,
      "count": 8,
      "max": [
        -0.4283851683139801,
        -0.9035962224006653,
        0.0
      ],
      "min": [
        -0.4283851683139801,
        -0.9035962224006653,
        -3.547691289583985e-17
      ],
      "type": "VEC3"
    },
    {
      "bufferView": 0,
      "byteOffset": 5389280,
      "componentType": 5125,
      "count": 12,
      "type": "SCALAR"
    },
    {
      "bufferView": 2,
      "byteOffset": 14988288,
      "componentType": 5126,
      "count": 11,
      "max": [
        151.96188354492188,
        0.02472567930817604,
        4.762152194976807
      ],
      "min": [
        151.23301696777344,
        0.02472567930817604,
        3.1983320713043213
      ],
      "type": "VEC3"
    },
    {
      "bufferView": 2,
      "byteOffset": 14988420,
      "componentType": 5126,
      "count": 11,
      "max": [
        0.0,
        -1.0,
        6.160661207793659e-17
      ],
      "min": [
        -1.4730109608249507e-33,
        -1.0,
        5.987819502694988e-17
      ],
      "type": "VEC3"
    },
    {
      "bufferView": 0,
      "byteOffset": 5389328,
      "componentType": 5125,
      "count": 27,
      "type": "SCALAR"
    },
    {
      "bufferView": 2,
      "byteOffset": 14988552,
      "componentType": 5126,
      "count": 3,
      "max": [
        151.72496032714844,
        0.02472567930817604,
        3.6076321601867676
      ],
      "min": [
        151.45416259765625,
        0.02472567930817604,
        3.2999448776245117
      ],
      "type": "VEC3"
    },
    {
      "bufferView": 2,
      "byteOffset": 14988588,
      "componentType": 5126,
      "count": 3,
      "max": [
        0.0,
        -1.0,
        0.0
      ],
      "min": [
        0.0,
        -1.0,
        0.0
      ],
      "type": "VEC3"
    },
    {
      "bufferView": 0,
      "byteOffset": 5389436,
      "componentType": 5125,
      "count": 3,
      "type": "SCALAR"
    },
    {
      "bufferView": 2,
      "byteOffset": 14988624,
      "componentType": 5126,
      "count": 188,
      "max": [
        165.9836883544922,
        22.207748413085938,
        30.30945587158203
      ],
      "min": [
        152.32386779785156,
        -0.0688893049955368,
        5.061845302581787
      ],
      "type": "VEC3"
    },
    {
      "bufferView": 0,
      "byteOffset": 5389448,
      "componentType": 5125,
      "count": 334,
      "type": "SCALAR"
    },
    {
      "bufferView": 2,
      "byteOffset": 14990880,
      "componentType": 5126,
      "count": 65534,
      "max": [
        168.26438903808594,
        20.18696403503418,
        32.53544998168945
      ],
      "min": [
        151.19839477539063,
        -0.3308381140232086,
        0.3783605992794037
      ],
      "type": "VEC3"
    },
    {
      "bufferView": 0,
      "byteOffset": 5390784,
      "componentType": 5125,
      "count": 140206,
      "type": "SCALAR"
    },
    {
      "bufferView": 2,
      "byteOffset": 15777288,
      "componentType": 5126,
      "count": 34634,
      "max": [
        168.26438903808594,
        20.18696403503418,
        32.53544998168945
      ],
      "min": [
        151.22186279296875,
        -0.3308381140232086,
        0.5752109885215759
      ],
      "type": "VEC3"
    },
    {
      "bufferView": 0,
      "byteOffset": 5951608,
      "componentType": 5125,
      "count": 69766,
      "type": "SCALAR"
    },
    {
      "bufferView": 2,
      "byteOffset": 16192896,
      "componentType": 5126,
      "count": 2434,
      "max": [
        166.82562255859375,
        21.850393295288086,
        31.957921981811523
      ],
      "min": [
        152.6061553955078,
        0.26988399028778076,
        7.889063358306885
      ],
      "type": "VEC3"
    },
    {
      "bufferView": 0,
      "byteOffset": 6230672,
      "componentType": 5125,
      "count": 6024,
      "type": "SCALAR"
    },
    {
      "bufferView": 2,
      "byteOffset": 16222104,
      "componentType": 5126,
      "count": 1220,
      "max": [
        167.80357360839844,
        22.306180953979492,
        30.40789031982422
      ],
      "min": [
        155.73069763183594,
        20.585962295532227,
        8.312716484069824
      ],
      "type": "VEC3"
    },
    {
      "bufferView": 0,
      "byteOffset": 6254768,
      "componentType": 5125,
      "count": 2430,
      "type": "SCALAR"
    }
  ],
  "asset": {
    "extras": {
      "author": "MrdT (https://sketchfab.com/mrdt.club)",
      "license": "CC-BY-4.0 (http://creativecommons.org/licenses/by/4.0/)",
      "source": "https://sketchfab.com/3d-models/cloudengine-s12700e-12-cfe46b58906f4f91b103f71a8296e8c1",
      "title": "CloudEngine S12700E-12"
    },
    "generator": "Sketchfab-16.67.0",
    "version": "2.0"
  },
  "bufferViews": [
    {
      "buffer": 0,
      "byteLength": 6264488,
      "name": "floatBufferViews",
      "target": 34963
    },
    {
      "buffer": 0,
      "byteLength": 3930368,
      "byteOffset": 6264488,
      "byteStride": 8,
      "name": "floatBufferViews",
      "target": 34962
    },
    {
      "buffer": 0,
      "byteLength": 16236744,
      "byteOffset": 10194856,
      "byteStride": 12,
      "name": "floatBufferViews",
      "target": 34962
    }
  ],
  "buffers": [
    {
      "byteLength": 26431600,
      "uri": "scene.bin"
    }
  ],
  "images": [
    {
      "uri": "textures/afu321_230316073147609_baseColor.png"
    },
    {
      "uri": "textures/afu321_230311154507091_0_baseColor.png"
    },
    {
      "uri": "textures/afu321_230311170010904_baseColor.png"
    },
    {
      "uri": "textures/afu321_230311154507091_baseColor.png"
    },
    {
      "uri": "textures/Aluminum_baseColor.jpeg"
    },
    {
      "uri": "textures/Aluminum_1_baseColor.jpeg"
    },
    {
      "uri": "textures/Metal_Aluminum_Anodized_baseColor.jpeg"
    },
    {
      "uri": "textures/Metal_Silver_baseColor.jpeg"
    },
    {
      "uri": "textures/afu321_230316073122076_baseColor.png"
    },
    {
      "uri": "textures/afu321_230313173725614_baseColor.png"
    },
    {
      "uri": "textures/2420x1200_baseColor.jpeg"
    },
    {
      "uri": "textures/afu321_230313171137347_3_baseColor.png"
    },
    {
      "uri": "textures/afu321_230313171024732_baseColor.png"
    },
    {
      "uri": "textures/2420x1200_2_baseColor.jpeg"
    },
    {
      "uri": "textures/afu321_230313171137347_baseColor.png"
    },
    {
      "uri": "textures/Aluminum_1_45_baseColor.jpeg"
    },
    {
      "uri": "textures/Aluminum_1_4_baseColor.jpeg"
    }
  ],
  "materials": [
    {
      "name": "afu321_230316073147609",
      "pbrMetallicRoughness": {
        "baseColorFactor": [
          0.3713850837138508,
          0.3713850837138508,
          0.3713850837138508,
          1.0
        ],
        "baseColorTexture": {
          "index": 0
        },
        "metallicFactor": 0.0,
        "roughnessFactor": 0.6
      }
    },
    {
      "name": "edge_color000255",
      "pbrMetallicRoughness": {
        "metallicFactor": 0.0,
        "roughnessFactor": 0.6
      }
    },
    {
      "name": "edge_color353535255",
      "pbrMetallicRoughness": {
        "metallicFactor": 0.0,
        "roughnessFactor": 0.6
      }
    },
    {
      "name": "0136_Charcoal",
      "pbrMetallicRoughness": {
        "baseColorFactor": [
          0.137255,
          0.137255,
          0.137255,
          1.0
        ],
        "metallicFactor": 0.0,
        "roughnessFactor": 0.6
      }
    },
    {
      "name": "edge_color210210210255",
      "pbrMetallicRoughness": {
        "metallicFactor": 0.0,
        "roughnessFactor": 0.6
      }
    },
    {
      "name": "0137_Black",
      "pbrMetallicRoughness": {
        "baseColorFactor": [
          0.0,
          0.0,
          0.0,
          1.0
        ],
        "metallicFactor": 0.0,
        "roughnessFactor": 0.6
      }
    },
    {
      "name": "material",
      "pbrMetallicRoughness": {
        "metallicFactor": 0.0,
        "roughnessFactor": 0.6
      }
    },
    {
      "name": "edge_color245246246255",
      "pbrMetallicRoughness": {
        "metallicFactor": 0.0,
        "roughnessFactor": 0.6
      }
    },
    {
      "name": "afu321_230311154507091_0",
      "pbrMetallicRoughness": {
        "baseColorTexture": {
          "index": 1
        },
        "metallicFactor": 0.0,
        "roughnessFactor": 0.6
      }
    },
    {
      "name": "edge_color196199199255",
      "pbrMetallicRoughness": {
        "baseColorFactor": [
          0.0,
          0.0,
          0.0,
          1.0
        ],
        "metallicFactor": 0.0,
        "roughnessFactor": 0.6
      }
    },
    {
      "name": "afu321_230311170010904",
      "pbrMetallicRoughness": {
        "baseColorFactor": [
          0.8401826484018264,
          0.8401826484018264,
          0.8401826484018264,
          1.0
        ],
        "baseColorTexture": {
          "index": 2
        },
        "metallicFactor": 0.0,
        "roughnessFactor": 0.6
      }
    },
    {
      "name": "edge_color15420550255",
      "pbrMetallicRoughness": {
        "metallicFactor": 0.0,
        "roughnessFactor": 0.6
      }
    },
    {
      "name": "0062_YellowGreen",
      "pbrMetallicRoughness": {
        "baseColorFactor": [
          0.603922,
          0.803922,
          0.196078,
          1.0
        ],
        "metallicFactor": 0.0,
        "roughnessFactor": 0.6
      }
    },
    {
      "name": "0077_DarkGreen",
      "pbrMetallicRoughness": {
        "baseColorFactor": [
          0.0,
          0.392157,
          0.0,
          1.0
        ],
        "metallicFactor": 0.0,
        "roughnessFactor": 0.6
      }
    },
    {
      "name": "afu321_230311154507091",
      "pbrMetallicRoughness": {
        "baseColorTexture": {
          "index": 3
        },
        "metallicFactor": 0.0,
        "roughnessFactor": 0.6
      }
    },
    {
      "name": "edge_color179179179255",
      "pbrMetallicRoughness": {
        "metallicFactor": 0.0,
        "roughnessFactor": 0.6
      }
    },
    {
      "name": "Aluminum",
      "pbrMetallicRoughness": {
        "baseColorTexture": {
          "index": 4
        },
        "metallicFactor": 0.0,
        "roughnessFactor": 0.6
      }
    },
    {
      "name": "Aluminum_1",
      "pbrMetallicRoughness": {
        "baseColorTexture": {
          "index": 5
        },
        "metallicFactor": 0.0,
        "roughnessFactor": 0.6
      }
    },
    {
      "name": "edge_color2552150255",
      "pbrMetallicRoughness": {
        "metallicFactor": 0.0,
        "roughnessFactor": 0.6
      }
    },
    {
      "name": "0046_Gold",
      "pbrMetallicRoughness": {
        "baseColorFactor": [
          1.0,
          0.843137,
          0.0,
          1.0
        ],
        "metallicFactor": 0.0,
        "roughnessFactor": 0.6
      }
    },
    {
      "name": "Metal_Aluminum_Anodized",
      "pbrMetallicRoughness": {
        "baseColorTexture": {
          "index": 6
        },
        "metallicFactor": 0.0,
        "roughnessFactor": 0.6
      }
    },
    {
      "name": "edge_color202209219255",
      "pbrMetallicRoughness": {
        "metallicFactor": 0.0,
        "roughnessFactor": 0.6
      }
    },
    {
      "name": "edge_color234233238255",
      "pbrMetallicRoughness": {
        "metallicFactor": 0.0,
        "roughnessFactor": 0.6
      }
    },
    {
      "name": "Metal_Silver",
      "pbrMetallicRoughness": {
        "baseColorTexture": {
          "index": 7
        },
        "metallicFactor": 0.0,
        "roughnessFactor": 0.6
      }
    },
    {
      "name": "0078_DarkSlateGray",
      "pbrMetallicRoughness": {
        "baseColorFactor": [
          0.184314,
          0.309804,
          0.309804,
          1.0
        ],
        "metallicFactor": 0.0,
        "roughnessFactor": 0.6
      }
    },
    {
      "name": "0070_SpringGreen",
      "pbrMetallicRoughness": {
        "baseColorFactor": [
          0.0,
          1.0,
          0.498039,
          1.0
        ],
        "metallicFactor": 0.0,
        "roughnessFactor": 0.6
      }
    },
    {
      "name": "afu321_230316073122076",
      "pbrMetallicRoughness": {
        "baseColorTexture": {
          "index": 8
        },
        "metallicFactor": 0.0,
        "roughnessFactor": 0.6
      }
    },
    {
      "name": "0129_WhiteSmoke",
      "pbrMetallicRoughness": {
        "baseColorFactor": [
          0.960784,
          0.960784,
          0.960784,
          1.0
        ],
        "metallicFactor": 0.0,
        "roughnessFactor": 0.6
      }
    },
    {
      "name": "edge_color192192192255",
      "pbrMetallicRoughness": {
        "metallicFactor": 0.0,
        "roughnessFactor": 0.6
      }
    },
    {
      "name": "0131_Silver",
      "pbrMetallicRoughness": {
        "baseColorFactor": [
          0.752941,
          0.752941,
          0.752941,
          1.0
        ],
        "metallicFactor": 0.0,
        "roughnessFactor": 0.6
      }
    },
    {
      "name": "Color_M00",
      "pbrMetallicRoughness": {
        "metallicFactor": 0.0,
        "roughnessFactor": 0.6
      }
    },
    {
      "name": "Color_F05",
      "pbrMetallicRoughness": {
        "baseColorFactor": [
          0.498039,
          1.0,
          0.0,
          1.0
        ],
        "metallicFactor": 0.0,
        "roughnessFactor": 0.6
      }
    },
    {
      "name": "Color_M09",
      "pbrMetallicRoughness": {
        "baseColorFactor": [
          0.0,
          0.0,
          0.0,
          1.0
        ],
        "metallicFactor": 0.0,
        "roughnessFactor": 0.6
      }
    },
    {
      "name": "afu321_230313173725614",
      "pbrMetallicRoughness": {
        "baseColorTexture": {
          "index": 9
        },
        "metallicFactor": 0.0,
        "roughnessFactor": 0.6
      }
    },
    {
      "name": "edge_color707070255",
      "pbrMetallicRoughness": {
        "metallicFactor": 0.0,
        "roughnessFactor": 0.6
      }
    },
    {
      "name": "0076_Green",
      "pbrMetallicRoughness": {
        "baseColorFactor": [
          0.0,
          0.501961,
          0.0,
          1.0
        ],
        "metallicFactor": 0.0,
        "roughnessFactor": 0.6
      }
    },
    {
      "name": "edge_color302928255",
      "pbrMetallicRoughness": {
        "metallicFactor": 0.0,
        "roughnessFactor": 0.6
      }
    },
    {
      "name": "2420x1200",
      "pbrMetallicRoughness": {
        "baseColorTexture": {
          "index": 10
        },
        "metallicFactor": 0.0,
        "roughnessFactor": 0.6
      }
    },
    {
      "name": "0020_Red",
      "pbrMetallicRoughness": {
        "baseColorFactor": [
          1.0,
          0.0,
          0.0,
          1.0
        ],
        "metallicFactor": 0.0,
        "roughnessFactor": 0.6
      }
    },
    {
      "name": "afu321_230313171137347_3",
      "pbrMetallicRoughness": {
        "baseColorTexture": {
          "index": 11
        },
        "metallicFactor": 0.0,
        "roughnessFactor": 0.6
      }
    },
    {
      "name": "edge_color173173173255",
      "pbrMetallicRoughness": {
        "metallicFactor": 0.0,
        "roughnessFactor": 0.6
      }
    },
    {
      "name": "afu321_230313171024732",
      "pbrMetallicRoughness": {
        "baseColorTexture": {
          "index": 12
        },
        "metallicFactor": 0.0,
        "roughnessFactor": 0.6
      }
    },
    {
      "name": "2420x1200_2",
      "pbrMetallicRoughness": {
        "baseColorTexture": {
          "index": 13
        },
        "metallicFactor": 0.0,
        "roughnessFactor": 0.6
      }
    },
    {
      "name": "0130_Gainsboro",
      "pbrMetallicRoughness": {
        "baseColorFactor": [
          0.862745,
          0.862745,
          0.862745,
          1.0
        ],
        "metallicFactor": 0.0,
        "roughnessFactor": 0.6
      }
    },
    {
      "name": "afu321_230313171137347",
      "pbrMetallicRoughness": {
        "baseColorTexture": {
          "index": 14
        },
        "metallicFactor": 0.0,
        "roughnessFactor": 0.6
      }
    },
    {
      "name": "Aluminum_1_45",
      "pbrMetallicRoughness": {
        "baseColorTexture": {
          "index": 15
        },
        "metallicFactor": 0.0,
        "roughnessFactor": 0.6
      }
    },
    {
      "name": "Aluminum_1_4",
      "pbrMetallicRoughness": {
        "baseColorTexture": {
          "index": 16
        },
        "metallicFactor": 0.0,
        "roughnessFactor": 0.6
      }
    },
    {
      "name": "0112_SlateBlue",
      "pbrMetallicRoughness": {
        "baseColorFactor": [
          0.415686,
          0.352941,
          0.803922,
          1.0
        ],
        "metallicFactor": 0.0,
        "roughnessFactor": 0.6
      }
    },
    {
      "name": "0125_Plum",
      "pbrMetallicRoughness": {
        "baseColorFactor": [
          0.866667,
          0.627451,
          0.866667,
          1.0
        ],
        "metallicFactor": 0.0,
        "roughnessFactor": 0.6
      }
    },
    {
      "name": "0117_GhostWhite",
      "pbrMetallicRoughness": {
        "baseColorFactor": [
          0.972549,
          0.972549,
          1.0,
          1.0
        ],
        "metallicFactor": 0.0,
        "roughnessFactor": 0.6
      }
    },
    {
      "name": "0056_Yellow",
      "pbrMetallicRoughness": {
        "baseColorFactor": [
          1.0,
          1.0,
          0.0,
          1.0
        ],
        "metallicFactor": 0.0,
        "roughnessFactor": 0.6
      }
    }
  ],
  "meshes": [
    {
      "name": "Material2",
      "primitives": [
        {
          "attributes": {
            "NORMAL": 1,
            "POSITION": 0,
            "TEXCOORD_0": 2
          },
          "indices": 3,
          "material": 0,
          "mode": 4
        }
      ]
    },
    {
      "name": "Material2",
      "primitives": [
        {
          "attributes": {
            "NORMAL": 5,
            "POSITION": 4,
            "TEXCOORD_0": 6
          },
          "indices": 7,
          "material": 0,
          "mode": 4
        }
      ]
    },
    {
      "name": "Material2",
      "primitives": [
        {
          "attributes": {
            "NORMAL": 9,
            "POSITION": 8,
            "TEXCOORD_0": 10
          },
          "indices": 11,
          "material": 0,
          "mode": 4
        }
      ]
    },
    {
      "name": "Material2",
      "primitives": [
        {
          "attributes": {
            "NORMAL": 13,
            "POSITION": 12,
            "TEXCOORD_0": 14
          },
          "indices": 15,
          "material": 0,
          "mode": 4
        }
      ]
    },
    {
      "name": "Material3",
      "primitives": [
        {
          "attributes": {
            "POSITION": 16
          },
          "indices": 17,
          "material": 2,
          "mode": 1
        }
      ]
    },
    {
      "name": "Material2",
      "primitives": [
        {
          "attributes": {
            "NORMAL": 19,
            "POSITION": 18
          },
          "indices": 20,
          "material": 3,
          "mode": 4
        }
      ]
    },
    {
      "name": "Material3",
      "primitives": [
        {
          "attributes": {
            "POSITION": 21
          },
          "indices": 22,
          "material": 4,
          "mode": 1
        }
      ]
    },
    {
      "name": "Material2",
      "primitives": [
        {
          "attributes": {
            "NORMAL": 24,
            "POSITION": 23
          },
          "indices": 25,
          "material": 5,
          "mode": 4
        }
      ]
    },
    {
      "name": "Material2",
      "primitives": [
        {
          "attributes": {
            "NORMAL": 27,
            "POSITION": 26
          },
          "indices": 28,
          "material": 6,
          "mode": 4
        }
      ]
    },
    {
      "name": "Material3",
      "primitives": [
        {
          "attributes": {
            "POSITION": 29
          },
          "indices": 30,
          "material": 7,
          "mode": 1
        }
      ]
    },
    {
      "name": "Material2",
      "primitives": [
        {
          "attributes": {
            "NORMAL": 32,
            "POSITION": 31,
            "TEXCOORD_0": 33
          },
          "indices": 34,
          "material": 8,
          "mode": 4
        }
      ]
    },
    {
      "name": "Material4",
      "primitives": [
        {
          "attributes": {
            "POSITION": 35
          },
          "indices": 36,
          "material": 9,
          "mode": 1
        }
      ]
    },
    {
      "name": "Material2",
      "primitives": [
        {
          "attributes": {
            "NORMAL": 38,
            "POSITION": 37,
            "TEXCOORD_0": 39
          },
          "indices": 40,
          "material": 10,
          "mode": 4
        }
      ]
    },
    {
      "name": "Material3",
      "primitives": [
        {
          "attributes": {
            "POSITION": 41
          },
          "indices": 42,
          "material": 11,
          "mode": 1
        }
      ]
    },
    {
      "name": "Material2",
      "primitives": [
        {
          "attributes": {
            "NORMAL": 44,
            "POSITION": 43
          },
          "indices": 45,
          "material": 12,
          "mode": 4
        }
      ]
    },
    {
      "name": "Material2",
      "primitives": [
        {
          "attributes": {
            "NORMAL": 47,
            "POSITION": 46
          },
          "indices": 48,
          "material": 13,
          "mode": 4
        }
      ]
    },
    {
      "name": "Material3",
      "primitives": [
        {
          "attributes": {
            "NORMAL": 50,
            "POSITION": 49,
            "TEXCOORD_0": 51
          },
          "indices": 52,
          "material": 14,
          "mode": 4
        }
      ]
    },
    {
      "name": "Material4",
      "primitives": [
        {
          "attributes": {
            "POSITION": 53
          },
          "indices": 54,
          "material": 15,
          "mode": 1
        }
      ]
    },
    {
      "name": "Material2",
      "primitives": [
        {
          "attributes": {
            "NORMAL": 56,
            "POSITION": 55,
            "TEXCOORD_0": 57
          },
          "indices": 58,
          "material": 16,
          "mode": 4
        }
      ]
    },
    {
      "name": "Material2",
      "primitives": [
        {
          "attributes": {
            "NORMAL": 60,
            "POSITION": 59,
            "TEXCOORD_0": 61
          },
          "indices": 62,
          "material": 17,
          "mode": 4
        }
      ]
    },
    {
      "name": "Material3",
      "primitives": [
        {
          "attributes": {
            "POSITION": 63
          },
          "indices": 64,
          "material": 18,
          "mode": 1
        }
      ]
    },
    {
      "name": "Material2",
      "primitives": [
        {
          "attributes": {
            "NORMAL": 66,
            "POSITION": 65
          },
          "indices": 67,
          "material": 19,
          "mode": 4
        }
      ]
    },
    {
      "name": "Material2",
      "primitives": [
        {
          "attributes": {
            "NORMAL": 69,
            "POSITION": 68,
            "TEXCOORD_0": 70
          },
          "indices": 71,
          "material": 20,
          "mode": 4
        }
      ]
    },
    {
      "name": "Material3",
      "primitives": [
        {
          "attributes": {
            "POSITION": 72
          },
          "indices": 73,
          "material": 21,
          "mode": 1
        }
      ]
    },
    {
      "name": "Material4",
      "primitives": [
        {
          "attributes": {
            "POSITION": 74
          },
          "indices": 75,
          "material": 22,
          "mode": 1
        }
      ]
    },
    {
      "name": "Material2",
      "primitives": [
        {
          "attributes": {
            "NORMAL": 77,
            "POSITION": 76,
            "TEXCOORD_0": 78
          },
          "indices": 79,
          "material": 23,
          "mode": 4
        }
      ]
    },
    {
      "name": "Material2",
      "primitives": [
        {
          "attributes": {
            "NORMAL": 81,
            "POSITION": 80
          },
          "indices": 82,
          "material": 24,
          "mode": 4
        }
      ]
    },
    {
      "name": "Material2",
      "primitives": [
        {
          "attributes": {
            "NORMAL": 84,
            "POSITION": 83
          },
          "indices": 85,
          "material": 25,
          "mode": 4
        }
      ]
    },
    {
      "name": "Material2",
      "primitives": [
        {
          "attributes": {
            "NORMAL": 87,
            "POSITION": 86,
            "TEXCOORD_0": 88
          },
          "indices": 89,
          "material": 26,
          "mode": 4
        }
      ]
    },
    {
      "name": "Material2",
      "primitives": [
        {
          "attributes": {
            "NORMAL": 91,
            "POSITION": 90,
            "TEXCOORD_0": 92
          },
          "indices": 93,
          "material": 26,
          "mode": 4
        }
      ]
    },
    {
      "name": "Material2",
      "primitives": [
        {
          "attributes": {
            "NORMAL": 95,
            "POSITION": 94
          },
          "indices": 96,
          "material": 27,
          "mode": 4
        }
      ]
    },
    {
      "name": "Material3",
      "primitives": [
        {
          "attributes": {
            "POSITION": 97
          },
          "indices": 98,
          "material": 28,
          "mode": 1
        }
      ]
    },
    {
      "name": "Material2",
      "primitives": [
        {
          "attributes": {
            "NORMAL": 100,
            "POSITION": 99
          },
          "indices": 101,
          "material": 29,
          "mode": 4
        }
      ]
    },
    {
      "name": "Material2",
      "primitives": [
        {
          "attributes": {
            "NORMAL": 103,
            "POSITION": 102
          },
          "indices": 104,
          "material": 30,
          "mode": 4
        }
      ]
    },
    {
      "name": "Material2",
      "primitives": [
        {
          "attributes": {
            "NORMAL": 106,
            "POSITION": 105
          },
          "indices": 107,
          "material": 31,
          "mode": 4
        }
      ]
    },
    {
      "name": "Material2",
      "primitives": [
        {
          "attributes": {
            "NORMAL": 109,
            "POSITION": 108
          },
          "indices": 110,
          "material": 32,
          "mode": 4
        }
      ]
    },
    {
      "name": "Material2",
      "primitives": [
        {
          "attributes": {
            "NORMAL": 112,
            "POSITION": 111,
            "TEXCOORD_0": 113
          },
          "indices": 114,
          "material": 33,
          "mode": 4
        }
      ]
    },
    {
      "name": "Material2",
      "primitives": [
        {
          "attributes": {
            "NORMAL": 116,
            "POSITION": 115
          },
          "indices": 117,
          "material": 35,
          "mode": 4
        }
      ]
    },
    {
      "name": "Material3",
      "primitives": [
        {
          "attributes": {
            "POSITION": 118
          },
          "indices": 119,
          "material": 36,
          "mode": 1
        }
      ]
    },
    {
      "name": "Material2",
      "primitives": [
        {
          "attributes": {
            "NORMAL": 121,
            "POSITION": 120,
            "TEXCOORD_0": 122
          },
          "indices": 123,
          "material": 37,
          "mode": 4
        }
      ]
    },
    {
      "name": "Material3",
      "primitives": [
        {
          "attributes": {
            "NORMAL": 125,
            "POSITION": 124
          },
          "indices": 126,
          "material": 38,
          "mode": 4
        }
      ]
    },
    {
      "name": "Material2",
      "primitives": [
        {
          "attributes": {
            "NORMAL": 128,
            "POSITION": 127,
            "TEXCOORD_0": 129
          },
          "indices": 130,
          "material": 39,
          "mode": 4
        }
      ]
    },
    {
      "name": "Material2",
      "primitives": [
        {
          "attributes": {
            "NORMAL": 132,
            "POSITION": 131,
            "TEXCOORD_0": 133
          },
          "indices": 134,
          "material": 41,
          "mode": 4
        }
      ]
    },
    {
      "name": "Material2",
      "primitives": [
        {
          "attributes": {
            "NORMAL": 136,
            "POSITION": 135,
            "TEXCOORD_0": 137
          },
          "indices": 138,
          "material": 42,
          "mode": 4
        }
      ]
    },
    {
      "name": "Material3",
      "primitives": [
        {
          "attributes": {
            "NORMAL": 140,
            "POSITION": 139
          },
          "indices": 141,
          "material": 43,
          "mode": 4
        }
      ]
    },
    {
      "name": "Material2",
      "primitives": [
        {
          "attributes": {
            "NORMAL": 143,
            "POSITION": 142,
            "TEXCOORD_0": 144
          },
          "indices": 145,
          "material": 44,
          "mode": 4
        }
      ]
    },
    {
      "name": "Material2",
      "primitives": [
        {
          "attributes": {
            "NORMAL": 147,
            "POSITION": 146,
            "TEXCOORD_0": 148
          },
          "indices": 149,
          "material": 45,
          "mode": 4
        }
      ]
    },
    {
      "name": "Material2",
      "primitives": [
        {
          "attributes": {
            "NORMAL": 151,
            "POSITION": 150,
            "TEXCOORD_0": 152
          },
          "indices": 153,
          "material": 46,
          "mode": 4
        }
      ]
    },
    {
      "name": "Material2",
      "primitives": [
        {
          "attributes": {
            "NORMAL": 155,
            "POSITION": 154,
            "TEXCOORD_0": 156
          },
          "indices": 157,
          "material": 46,
          "mode": 4
        }
      ]
    },
    {
      "name": "Material2",
      "primitives": [
        {
          "attributes": {
            "NORMAL": 159,
            "POSITION": 158
          },
          "indices": 160,
          "material": 47,
          "mode": 4
        }
      ]
    },
    {
      "name": "Material2",
      "primitives": [
        {
          "attributes": {
            "NORMAL": 162,
            "POSITION": 161
          },
          "indices": 163,
          "material": 48,
          "mode": 4
        }
      ]
    },
    {
      "name": "Material2",
      "primitives": [
        {
          "attributes": {
            "NORMAL": 165,
            "POSITION": 164
          },
          "indices": 166,
          "material": 49,
          "mode": 4
        }
      ]
    },
    {
      "name": "Material2",
      "primitives": [
        {
          "attributes": {
            "NORMAL": 168,
            "POSITION": 167
          },
          "indices": 169,
          "material": 50,
          "mode": 4
        }
      ]
    },
    {
      "name": "Material2",
      "primitives": [
        {
          "attributes": {
            "POSITION": 170
          },
          "indices": 171,
          "material": 1,
          "mode": 1
        }
      ]
    },
    {
      "name": "Material4",
      "primitives": [
        {
          "attributes": {
            "POSITION": 172
          },
          "indices": 173,
          "material": 1,
          "mode": 1
        }
      ]
    },
    {
      "name": "Material4",
      "primitives": [
        {
          "attributes": {
            "POSITION": 174
          },
          "indices": 175,
          "material": 1,
          "mode": 1
        }
      ]
    },
    {
      "name": "Material2",
      "primitives": [
        {
          "attributes": {
            "POSITION": 176
          },
          "indices": 177,
          "material": 34,
          "mode": 1
        }
      ]
    },
    {
      "name": "Material2",
      "primitives": [
        {
          "attributes": {
            "POSITION": 178
          },
          "indices": 179,
          "material": 40,
          "mode": 1
        }
      ]
    }
  ],
  "nodes": [
    {
      "children": [
        1
      ],
      "matrix": [
        1.0,
        0.0,
        0.0,
        0.0,
        0.0,
        2.220446049250313e-16,
        -1.0,
        0.0,
        0.0,
        1.0,
        2.220446049250313e-16,
        0.0,
        0.0,
        0.0,
        0.0,
        1.0
      ],
      "name": "Sketchfab_model"
    },
    {
      "children": [
        2,
        3,
        4,
        5,
        6,
        7,
        8,
        9,
        10,
        11,
        12,
        13,
        14,
        15,
        16,
        17,
        18,
        19,
        20,
        21,
        22,
        23,
        24,
        25,
        26,
        27,
        28,
        29,
        30,
        31,
        32,
        33,
        34,
        35,
        36,
        37,
        38,
        39,
        40,
        41,
        42,
        43,
        44,
        45,
        46,
        47,
        48,
        49,
        50,
        51,
        52,
        53,
        54,
        55,
        56,
        57,
        58,
        59,
        60
      ],
      "name": "Collada visual scene group"
    },
    {
      "mesh": 0,
      "name": "Material2"
    },
    {
      "mesh": 1,
      "name": "Material2"
    },
    {
      "mesh": 2,
      "name": "Material2"
    },
    {
      "mesh": 3,
      "name": "Material2"
    },
    {
      "mesh": 4,
      "name": "Material3"
    },
    {
      "mesh": 5,
      "name": "Material2"
    },
    {
      "mesh": 6,
      "name": "Material3"
    },
    {
      "mesh": 7,
      "name": "Material2"
    },
    {
      "mesh": 8,
      "name": "Material2"
    },
    {
      "mesh": 9,
      "name": "Material3"
    },
    {
      "mesh": 10,
      "name": "Material2"
    },
    {
      "mesh": 11,
      "name": "Material4"
    },
    {
      "mesh": 12,
      "name": "Material2"
    },
    {
      "mesh": 13,
      "name": "Material3"
    },
    {
      "mesh": 14,
      "name": "Material2"
    },
    {
      "mesh": 15,
      "name": "Material2"
    },
    {
      "mesh": 16,
      "name": "Material3"
    },
    {
      "mesh": 17,
      "name": "Material4"
    },
    {
      "mesh": 18,
      "name": "Material2"
    },
    {
      "mesh": 19,
      "name": "Material2"
    },
    {
      "mesh": 20,
      "name": "Material3"
    },
    {
      "mesh": 21,
      "name": "Material2"
    },
    {
      "mesh": 22,
      "name": "Material2"
    },
    {
      "mesh": 23,
      "name": "Material3"
    },
    {
      "mesh": 24,
      "name": "Material4"
    },
    {
      "mesh": 25,
      "name": "Material2"
    },
    {
      "mesh": 26,
      "name": "Material2"
    },
    {
      "mesh": 27,
      "name": "Material2"
    },
    {
      "mesh": 28,
      "name": "Material2"
    },
    {
      "mesh": 29,
      "name": "Material2"
    },
    {
      "mesh": 30,
      "name": "Material2"
    },
    {
      "mesh": 31,
      "name": "Material3"
    },
    {
      "mesh": 32,
      "name": "Material2"
    },
    {
      "mesh": 33,
      "name": "Material2"
    },
    {
      "mesh": 34,
      "name": "Material2"
    },
    {
      "mesh": 35,
      "name": "Material2"
    },
    {
      "mesh": 36,
      "name": "Material2"
    },
    {
      "mesh": 37,
      "name": "Material2"
    },
    {
      "mesh": 38,
      "name": "Material3"
    },
    {
      "mesh": 39,
      "name": "Material2"
    },
    {
      "mesh": 40,
      "name": "Material3"
    },
    {
      "mesh": 41,
      "name": "Material2"
    },
    {
      "mesh": 42,
      "name": "Material2"
    },
    {
      "mesh": 43,
      "name": "Material2"
    },
    {
      "mesh": 44,
      "name": "Material3"
    },
    {
      "mesh": 45,
      "name": "Material2"
    },
    {
      "mesh": 46,
      "name": "Material2"
    },
    {
      "mesh": 47,
      "name": "Material2"
    },
    {
      "mesh": 48,
      "name": "Material2"
    },
    {
      "mesh": 49,
      "name": "Material2"
    },
    {
      "mesh": 50,
      "name": "Material2"
    },
    {
      "mesh": 51,
      "name": "Material2"
    },
    {
      "mesh": 52,
      "name": "Material2"
    },
    {
      "mesh": 53,
      "name": "Material2"
    },
    {
      "mesh": 54,
      "name": "Material4"
    },
    {
      "mesh": 55,
      "name": "Material4"
    },
    {
      "mesh": 56,
      "name": "Material2"
    },
    {
      "mesh": 57,
      "name": "Material2"
    },
    {
      "children": [
        61
      ],
      "name": "SketchUp"
    },
    {
      "children": [
        62
      ],
      "matrix": [
        0.8679395,
        0.4966699,
        0.0,
        0.0,
        -0.2715238,
        0.4744926,
        0.837336,
        0.0,
        0.4158796,
        -0.726757,
        0.5466886,
        0.0,
        184.6512,
        -61.59618,
        63.45679,
        1.0
      ],
      "name": "skp_camera_Last_Saved_SketchUp_View"
    },
    {
      "name": "ID1"
    }
  ],
  "samplers": [
    {
      "magFilter": 9729,
      "minFilter": 9987,
      "wrapS": 10497,
      "wrapT": 10497
    }
  ],
  "scene": 0,
  "scenes": [
    {
      "name": "Sketchfab_Scene",
      "nodes": [
        0
      ]
    }
  ],
  "textures": [
    {
      "sampler": 0,
      "source": 0
    },
    {
      "sampler": 0,
      "source": 1
    },
    {
      "sampler": 0,
      "source": 2
    },
    {
      "sampler": 0,
      "source": 3
    },
    {
      "sampler": 0,
      "source": 4
    },
    {
      "sampler": 0,
      "source": 5
    },
    {
      "sampler": 0,
      "source": 6
    },
    {
      "sampler": 0,
      "source": 7
    },
    {
      "sampler": 0,
      "source": 8
    },
    {
      "sampler": 0,
      "source": 9
    },
    {
      "sampler": 0,
      "source": 10
    },
    {
      "sampler": 0,
      "source": 11
    },
    {
      "sampler": 0,
      "source": 12
    },
    {
      "sampler": 0,
      "source": 13
    },
    {
      "sampler": 0,
      "source": 14
    },
    {
      "sampler": 0,
      "source": 15
    },
    {
      "sampler": 0,
      "source": 16
    }
  ]
}
